/* XPM */
static char * bitcoin128_xpm[] = {
"128 128 18 1",
" 	c None",
".	c #07BFE0",
"+	c #26C7E4",
"@	c #55D3EA",
"#	c #83DFEF",
"$	c #C1EFF7",
"%	c #FFFFFF",
"&	c #EFFBFD",
"*	c #B1EBF5",
"=	c #92E3F1",
"-	c #E0F7FB",
";	c #A2E7F3",
">	c #64D7EC",
",	c #17C3E2",
"'	c #45CFE8",
")	c #36CBE6",
"!	c #D0F3F9",
"~	c #74DBEE",
"                                                        ................                                                        ",
"                                                  ............................                                                  ",
"                                              ...................................                                               ",
"                                           ..........................................                                           ",
"                                        ...............................................                                         ",
"                                      ....................................................                                      ",
"                                    ........................................................                                    ",
"                                  ............................................................                                  ",
"                                ................................................................                                ",
"                               ..................................................................                               ",
"                             ......................................................................                             ",
"                           .........................................................................                            ",
"                          ............................................................................                          ",
"                         ..............................................................................                         ",
"                       .................................................................................                        ",
"                      ....................................................................................                      ",
"                     ......................................................................................                     ",
"                    ........................................................................................                    ",
"                   ....................................+@#$$%%%%%%%&$*#@+....................................                   ",
"                  ..................................@=-%%%%%%%%%%%%%%%%%%-;>,.................................                  ",
"                 ................................+#-%%%%%%%%%%%%%%%%%%%%%%%%%*>,...............................                 ",
"                ...............................+;%%%%%%%%%%%%%%%%%%%%%%%%%%%%%%&;+..............................                ",
"               ..............................+;%%%%%%%%%%%%%%%%%%%%%%%%%%%%%%%%%%%$'.............................               ",
"              ..............................#&%%%%%%%%%%%%%%%%%$=#'''##$&%%%%%%%%%%%$'...........................               ",
"              ............................)!%%%%%%%%%%%%%%%%$>,..........'=-%%%%%%%%%%*+..........................              ",
"             ............................>&%%%%%%%%%%%%%%%$)................>-%%%%%%%%%%#,.........................             ",
"            ............................;%%%%%%%%%%%%%%%-'........)'''''......>&%%%%%%%%%-@.........................            ",
"           ...........................,;%%%%%%%%%%%%%%%*,.....,>*%%%%%%%%-;@...,*%%%%%%%%%%$+.......................            ",
"           ..........................,!%%%%%%%%%%%%%%%;.....,#&%%!=>'''~=!%%&#,..#%%%%%%%%%%%#,......................           ",
"          ...........................!%%%%%%%%%%%%%%%;.....'-%%=+.........,>!%&@..>%%%%%%%%%%%&#+.....................          ",
"          ..........................;%%%%%%%%%%%%%%%;.....~%%*+..............'-%;,.#%%%%%%%%%%%%%*>)....++............          ",
"         ..........................#%%%%%%%%%%%%%%%!,....;%%~..................#%!,.*%%%%%%%%%%%%%%%%%&%%&,............         ",
"        ..........................'%%%%%%%%%%%%%%%&)....;%%>....................'&!,,&%%%%%%%%%%%%%%%%%%&>..............        ",
"        .........................,&%%%%%%%%%%%%%%%~....>%%>......................+!*.@%%%%%%%%%%%%%%%%%&)...............        ",
"       ..........................;%%%%%%%%%%%%%%%!....)%%#........................,!#.$%%%%%%%%%%%%%%%!,....=@...........       ",
"       .........................'%%%%%%%%%%%%%%%%'...,-%$..........................,#.@%%%%%%%%%%%%%%*,...,;%%+..........       ",
"      ..........................!%%%%%%%%%%%%%%%*....=%&+..............................-%%%%%%%%%%%%;....,!%&>............      ",
"      .........................>%%%%%%%%%%%%%%%%+...)%%~...............................=%%%%%%%%%%%=....)-%&).............      ",
"     ..........................-%%%%%%%%%%%%%%%*....$%-................................)%%%%%%%%%%>....@&%!,...............     ",
"     .........................@%%%%%%%%%%%%%%%%'...'%%>.................................&%%%%%%%%>....>%%;,................     ",
"    ..........................$%%%%%%%%%%%%%%%!....$%-..................................$%%%%%%%>....;%%=..................     ",
"    .........................+%%%%%%%%%%%%%%%%>...+%%>..................................=%%%%%%>...,$%%>....................    ",
"    .........................=%%%%%%%%%%%%%%%%,...;%&...................................#%%%%%>...,!%&>.....................    ",
"   ..........................-%%%%%%%%%%%%%%%*....&%=...................................#%%%%>...)!%&)......................    ",
"   .........................)%%%%%%%%%%%%%%%%>...>%%)...................................'%%%>...)&%&)........................   ",
"   .........................~%%%%%%%%%%%%%%%%,...*%!....................................@%%>...)&%-).........................   ",
"  ..........................$%%%%%%%%%%%%%%%*...,%%~....................................#%#...)&%!,..........................   ",
"  ..........................%%%%%%%%%%%%%%%%>...@%%+....................................,~...)&%!,............................  ",
"  .........................)%%%%%%%%%%%%%%%%+...;%-.........................................)&%!,.............................  ",
"  .........................~%%%%%%%%%%%%%%%-....-%=........................................)&%!,..............................  ",
" ..........................=%%%%%%%%%%%%%%%;...)%%@........................................;%&,...............................  ",
" ..........................$%%%%%%%%%%%%%%%>...~%%..........................................>)................................. ",
" ..........................-%%%%%%%%%%%%%%%+...;%$............................................................................. ",
" ..........................%%%%%%%%%%%%%%%&....-%=............................................................................. ",
" ..........................%%%%%%%%%%%%%%%$...,%%@............................................................................. ",
" .........................)%%%%%%%%%%%%%%%=...'%%+............................................................................. ",
"..........................'%%%%%%%%%%%%%%%#...~%%.............................................................................. ",
"..........................'%%%%%%%%%%%%%%%'...#%$...............................................................................",
"..........................'%%%%%%%%%%%%%%%'...*%*...............................................................................",
"..........................,%%%%%%%%%%%%%%%,...$%#...............................................................................",
"...........................%%%%%%%%%%%%%%%....!%#...............................................................................",
"...........................%%%%%%%%%%%%%%%....%%>...............................................................................",
"...........................$%%%%%%%%%%%%%%....%%'...............................................................................",
"...........................;%%%%%%%%%%%%%%....%%'...............................................................................",
"...........................~%%%%%%%%%%%%%%....%%'...............................................................................",
"...........................)%%%%%%%%%%%%%%,...%%'...............................................................................",
"............................&%%%%%%%%%%%%%'...!%'...............................................................................",
"............................;%%%%%%%%%%%%%@...$%~...............................................................................",
"............................@%%%%%%%%%%%%%#...*%#...............................................................................",
".............................-%%%%%%%%%%%%*...#%;...............................................................................",
".............................#%%%%%%%%%%%%&...@%$...............................................................................",
".............................,&%%%%%%%%%%%%)..+%%.............................................................................. ",
" .............................#%%%%%%%%%%%%=...-%'....................................,~#'..................................... ",
" .............................,&%%%%%%%%%%%-...;%#....................................$%%%#.................................... ",
" ..............................>%%%%%%%%%%%%'..@%!...................................'%%%%-.................................... ",
" ...............................$%%%%%%%%%%%$...-%)..................................;%%%%&.................................... ",
" ...............................+&%%%%%%%%%%%'..#%;.................................+%%%%%$...@................................ ",
" ................................@%%%%%%%%%%%$..,&%+................................;%%%%%~..,&!+.............................  ",
"  ................................~%%%%%%%%%%%~..~%;...............................)%%%%%%+..>%%+.............................  ",
"  .................................;%%%%%%%%%%%)..!%'..............................$%%%%%*...!%!..............................  ",
"  ..................................;%%%%%%%%%%-,.+&&,............................~%%%%%%'..'%%>..............................  ",
"  ...................................;%%%%%%%%%%!,.)&!,..........................)%%%%%%$...;%-..............................   ",
"   ...................................~%%%%%%%%%%!).)&!,........................)&%%%%%&+..+%%#..............................   ",
"   ....................................@&%%%%%%%%%&@.+$-)......................)&%%%%%%~...$%-,..............................   ",
"   ...................................+.+$%%%%%%%%%%*,.>-)....................@&%%%%%%*...'%%>..............................    ",
"    ..................................==..~&%%%%%%%%%&#,.,..................,=%%%%%%%!,..,-%$...............................    ",
"    ...................................;*,.,;%%%%%%%%%%&;).................>&%%%%%%%&+...=%&+...............................    ",
"     ...................................>-'..)$%%%%%%%%%%%-;@+..........'=&%%%%%%%%&)...>%%>...............................     ",
"     ....................................@&=,..';%%%%%%%%%%%%%&$;####;$%%%%%%%%%%%!,...)&%;................................     ",
"     .....................................+!&>...+=-%%%%%%%%%%%%%%%%%%%%%%%%%%%%%=....)&%$................................      ",
"      ......................................#%->....;%%%%%%%%%%%%%%%%%%%%%%%%%%$)....>&%!,................................      ",
"      .......................................)$%-~,+&%%%%%%%%%%%%%%%%%%%%%%%-=+....,=%%;..................................      ",
"       ........................................@-%%-%%%%%%%*>=$!%%%%%%%%$*~)......>-%%#..................................       ",
"       ..........................................@-%%%%%%%&,...................,>-%%!)...................................       ",
"        .........................................)%%%%%%%%~.................,>*%%%&~....................................        ",
"        ........................................,-%%%%%%%$.....@>')....''#;!%%%%!>,....................................         ",
"         .......................................!%%%%%%%%&;'...)&%%%%%%%%%%%%$~).......................................         ",
"          .....................................)%%!$&%%%%%%%=...'##;$$$;##@)..........................................          ",
"          ......................................@)...'-%%%%%%;........................................................          ",
"           ........................................#$$@&%%%%%%)=)....................................................           ",
"            ......................................>%->,$%%%%%%#~!,..................................................            ",
"            .................................),....#...$%%%%%%$.&#..................................................            ",
"             ............................,@;-%.........&%%%%%%$.=&,................................................             ",
"              .......................,~*-%%%%!........>%%%%%%%#.@%@...............................................              ",
"               ......................,&%%%%%%-........-%%%%%%%@.'%#..............................................               ",
"               .......................#%%%%%%%+..'+..;%%%%%%%%,.'%;.............................................                ",
"                ......................,-%%%%%%!,.#$+;%%%%%%%%;..@%;.............................................                ",
"                 ......................'%%%%%%%&='~-%%%%%%%%&+..;%#............................................                 ",
"                  ......................>%%%%%%%%%%%%%%%%%%%>..,&%>...........................................                  ",
"                   ......................@&%%%%%%%%%%%%%%%%>...#%%,..........................................                   ",
"                    ......................,;%%%%%%%%%%%%%-'...'%%*..........................................                    ",
"                     .....................*~+=-%%%%%%%%!>....'&%%).........................................                     ",
"                      ....................,!$).,'####',.....#%%%>........................................                       ",
"                        ...................,$%;)..........>-%%%>........................................                        ",
"                         ....................>&%!=@)..)@;&%%%-'........................................                         ",
"                          .....................>*%%%%%%%%%%!>.........................................                          ",
"                            .....................,@#*$$$=~+.........................................                            ",
"                             ......................................................................                             ",
"                               ..................................................................                               ",
"                                ...............................................................                                 ",
"                                  ............................................................                                  ",
"                                    ........................................................                                    ",
"                                      ...................................................                                       ",
"                                         ..............................................                                         ",
"                                            ........................................                                            ",
"                                               ..................................                                               ",
"                                                   ..........................                                                   ",
"                                                         ..............                                                         "};
