/* XPM */
static char * bitcoin16_xpm[] = {
"16 16 18 1",
" 	c None",
".	c #07BFE0",
"+	c #17C3E2",
"@	c #83DFEF",
"#	c #B1EBF5",
"$	c #45CFE8",
"%	c #26C7E4",
"&	c #E0F7FB",
"*	c #D0F3F9",
"=	c #55D3EA",
"-	c #C1EFF7",
";	c #FFFFFF",
">	c #A2E7F3",
",	c #36CBE6",
"'	c #74DBEE",
")	c #92E3F1",
"!	c #64D7EC",
"~	c #EFFBFD",
"     ......     ",
"    ........    ",
"  ...+@#@@$...  ",
" ...%&*==$#-=%. ",
" ...-;=%...&>$. ",
"...,;#=....'=...",
"...';'$.........",
"...';@..........",
"...,;@+.........",
"....>-,...%)+...",
".....>>%.%-!....",
" ....+@#)>=+... ",
" ....,,~+...... ",
"  ...#-#$.....  ",
"    ..+$....    ",
"     ......     "};
