/* XPM */
static char * bitcoin32_xpm[] = {
"32 32 18 1",
" 	c None",
".	c #07BFE0",
"+	c #36CBE6",
"@	c #64D7EC",
"#	c #83DFEF",
"$	c #55D3EA",
"%	c #26C7E4",
"&	c #D0F3F9",
"*	c #FFFFFF",
"=	c #E0F7FB",
"-	c #C1EFF7",
";	c #EFFBFD",
">	c #17C3E2",
",	c #B1EBF5",
"'	c #45CFE8",
")	c #A2E7F3",
"!	c #92E3F1",
"~	c #74DBEE",
"            ........            ",
"         ..............         ",
"       .................        ",
"      ....................      ",
"     ........+@##$%........     ",
"    .......@&**=--;&@.......    ",
"   ......>,**;'%$$'@;&'......   ",
"  ......>&**;+$+..>$@;*)+.>..   ",
"  ......!***$@+.....'~***->%..  ",
" ......'***&>~.......>**)>!>... ",
" ......)***@#>........&)+#..... ",
" ......;***>!.........@+~...... ",
"......+***&%@..........$........",
"......'***!@+...................",
"......'***##....................",
"......'***##....................",
"......>***##....................",
".......,**)~....................",
".......'**=%$........$#.........",
"........#**~#.......>=!@........",
" ........#**~$......);+!....... ",
" ........%$=*,@...%,*@#>....... ",
" .........%$@;**=**&'@+........ ",
"  ..........,*!+''+@#+........  ",
"  ..........@)=+@#'%.........   ",
"   .......''>@*)+............   ",
"    .....$*#>&*'#...........    ",
"     .....~=*;#'@..........     ",
"      ....>'$'##..........      ",
"        ....>'>.........        ",
"         ..............         ",
"            ........            "};
