/* XPM */
static char * bitcoin64_xpm[] = {
"64 64 18 1",
" 	c None",
".	c #07BFE0",
"+	c #45CFE8",
"@	c #74DBEE",
"#	c #83DFEF",
"$	c #C1EFF7",
"%	c #A2E7F3",
"&	c #55D3EA",
"*	c #26C7E4",
"=	c #EFFBFD",
"-	c #FFFFFF",
";	c #E0F7FB",
">	c #92E3F1",
",	c #36CBE6",
"'	c #D0F3F9",
")	c #64D7EC",
"!	c #17C3E2",
"~	c #B1EBF5",
"                           ..........                           ",
"                      ....................                      ",
"                    ........................                    ",
"                 .............................                  ",
"                ................................                ",
"              ....................................              ",
"             ......................................             ",
"           ..........................................           ",
"          ............................................          ",
"         ..................+@#$$$%#&*..................         ",
"        ................+%=----------;>,................        ",
"       ...............+$--------'$;-----$)...............       ",
"       .............!>-------%,....!&%----;).............       ",
"      .............*'------$*..!)###)!*~----$+............      ",
"     .............,=------%..!#~@+++@~~*)-----%,...........     ",
"     ............*=------%..!$&.......*~))------'#&++......     ",
"    .............'------'!.!$,..........@)>--------=&.......    ",
"   .............#-------+..$,............&,=------=,.!#.....    ",
"   ............*-------%..@#...............#-----'!.,;&......   ",
"   ............%-------*.!'................*----'!.)$,.......   ",
"  ............*-------$..@).................=--'!.#$!.........  ",
"  ............@-------)..'..................$-'!.%%...........  ",
" .............'-------!.+>..................$'!!$%............  ",
" ............!-------~..%,..................@!!'@.............. ",
" ............&-------@..'....................!')............... ",
" ............#-------,.*%....................!@................ ",
" ............%-------..)@...................................... ",
".............$------$..>+.......................................",
".............$------~..$........................................",
".............$------#..'........................................",
".............~------#..$........................................",
".............#------#..$........................................",
".............&------#..$........................................",
".............!------%..$........................................",
"..............~-----'..~........................................",
"..............+------!.%!.......................................",
"...............$-----).)&..................%#...................",
" ..............*-----'.!%.................)--,................. ",
" ...............@-----).%*................;--..)............... ",
" ................%----=!*%...............@--%.&;............... ",
" .................%----'!)).............,=--*.$)............... ",
" ..................@----',&)...........!'-->.,;...............  ",
"  .................,+;----#*,.........+=--'!.$)...............  ",
"  .................,+.#=----~)*....!&$---'!.@~................  ",
"   .................!@*!@;------$$;-----$!.)'!...............   ",
"   ...................@>*.;-----------~+..@'!................   ",
"    ...................!#'---#+)####+!..+$~!................    ",
"    ....................+---;..!....!+#;~+..................    ",
"     ..................!=$--=#!!~$$$$>)*...................     ",
"     ...................!!+'--%............................     ",
"      ...................)&#---,&.........................      ",
"       ............,)%~....~---.>........................       ",
"       ............;--;...+---'.#!......................        ",
"        ...........&---%)@=---).>*......................        ",
"         ...........)--------%.!'......................         ",
"          ...........+%=---')..%>.....................          ",
"           ..........,@!,+!..*~'!...................            ",
"             .........!>%###~=#....................             ",
"              ...........,++,.....................              ",
"                ................................                ",
"                  ............................                  ",
"                    ........................                    ",
"                      ...................                       ",
"                           ..........                           "};
